<?xml version="1.0" encoding="UTF-8" standalone="no"?>
<!-- Generator: Adobe Illustrator 16.0.0, SVG Export Plug-In . SVG Version: 6.00 Build 0)  -->

<svg
   xmlns:dc="http://purl.org/dc/elements/1.1/"
   xmlns:cc="http://creativecommons.org/ns#"
   xmlns:rdf="http://www.w3.org/1999/02/22-rdf-syntax-ns#"
   xmlns:svg="http://www.w3.org/2000/svg"
   xmlns="http://www.w3.org/2000/svg"
   xmlns:sodipodi="http://sodipodi.sourceforge.net/DTD/sodipodi-0.dtd"
   xmlns:inkscape="http://www.inkscape.org/namespaces/inkscape"
   version="1.1"
   id="svg6517"
   sodipodi:docname="icon.svg"
   inkscape:version="0.91 r13725"
   x="0px"
   y="0px"
   width="96px"
   height="96px"
   viewBox="0 0 96 96"
   enable-background="new 0 0 96 96"
   xml:space="preserve"><metadata
     id="metadata3546"><rdf:RDF><cc:Work
         rdf:about=""><dc:format>image/svg+xml</dc:format><dc:type
           rdf:resource="http://purl.org/dc/dcmitype/StillImage" /><dc:title></dc:title></cc:Work></rdf:RDF></metadata><defs
     id="defs3544" /><filter
     inkscape:label="Badge Shadow"
     id="filter891"
     inkscape:collect="always"><feGaussianBlur
       stdDeviation="0.71999962"
       id="feGaussianBlur893"
       inkscape:collect="always" /></filter><filter
     inkscape:label="Inner Shadow"
     style="color-interpolation-filters:sRGB;"
     id="filter1121"><feFlood
       flood-color="rgb(0,0,0)"
       flood-opacity="0.59999999999999998"
       result="flood"
       id="feFlood1123" /><feComposite
       operator="out"
       in2="SourceGraphic"
       in="flood"
       result="composite1"
       id="feComposite1125" /><feGaussianBlur
       in="composite1"
       stdDeviation="1"
       result="blur"
       id="feGaussianBlur1127" /><feOffset
       dx="0"
       dy="2"
       result="offset"
       id="feOffset1129" /><feComposite
       operator="atop"
       in2="SourceGraphic"
       in="offset"
       result="composite2"
       id="feComposite1131" /></filter><sodipodi:namedview
     showguides="true"
     showborder="true"
     fit-margin-left="0"
     fit-margin-top="0"
     showgrid="true"
     inkscape:cy="64.624986"
     inkscape:cx="87.876824"
     inkscape:zoom="4.0745362"
     borderopacity="1.0"
     bordercolor="#666666"
     pagecolor="#ffffff"
     id="base"
     inkscape:showpageshadow="false"
     inkscape:guide-bbox="true"
     inkscape:window-maximized="1"
     inkscape:window-y="29"
     inkscape:window-x="0"
     inkscape:window-height="1025"
     inkscape:window-width="1920"
     fit-margin-bottom="0"
     fit-margin-right="0"
     inkscape:current-layer="layer1"
     inkscape:document-units="px"
     inkscape:pageshadow="2"
     inkscape:pageopacity="0.0"><inkscape:grid
       type="xygrid"
       id="grid821" /><sodipodi:guide
       position="16,48"
       orientation="1,0"
       id="guide823" /><sodipodi:guide
       position="64,80"
       orientation="0,1"
       id="guide825" /><sodipodi:guide
       position="80,40"
       orientation="1,0"
       id="guide827" /><sodipodi:guide
       position="64,16"
       orientation="0,1"
       id="guide829" /></sodipodi:namedview><g
     id="layer1"
     transform="translate(268,-635.29076)"
     inkscape:label="BACKGROUND"
     inkscape:groupmode="layer"><g
       id="path6455"
       sodipodi:nodetypes="sssssssss"
       inkscape:connector-curvature="0"
       filter="url(#filter1121)"><path
         fill="#003366"
         d="M-268,700.156v-33.73c0-27.243,3.888-31.135,31.103-31.135h33.793c27.216,0,31.104,3.892,31.104,31.135    v33.73c0,27.242-3.888,31.135-31.104,31.135h-33.793C-264.112,731.291-268,727.398-268,700.156z"
         id="path3478" /></g><g
       id="g3480"
       transform="matrix(0.48483792,0,0,0.44012033,-113.21294,369.79855)"><g
         id="g3482"><polygon
           points="-233.67,690.275 -221.625,683.277 -233.67,676.304 "
           id="polygon3484"
           style="fill:#ffffff" /><polygon
           points="-220.825,698.612 -220.825,684.646 -232.891,691.635 "
           id="polygon3486"
           style="fill:#ffffff" /><polygon
           points="-219.258,698.612 -207.18,691.635 -219.258,684.646 "
           id="polygon3488"
           style="fill:#ffffff" /><polygon
           points="-206.413,690.275 -206.413,676.304 -218.478,683.277 "
           id="polygon3490"
           style="fill:#ffffff" /><polygon
           points="-233.67,706.967 -221.625,699.951 -233.67,692.987 "
           id="polygon3492"
           style="fill:#ffffff" /><polygon
           points="-220.825,715.291 -220.825,701.323 -232.891,708.314 "
           id="polygon3494"
           style="fill:#ffffff" /><polygon
           points="-219.258,715.291 -207.18,708.314 -219.258,701.323 "
           id="polygon3496"
           style="fill:#ffffff" /><polygon
           points="-206.413,706.967 -206.413,692.987 -218.478,699.951 "
           id="polygon3498"
           style="fill:#ffffff" /><polygon
           points="-220.825,665.257 -220.825,651.291 -232.891,658.282 "
           id="polygon3500"
           style="fill:#ffffff" /><polygon
           points="-219.258,665.257 -207.18,658.282 -219.258,651.291 "
           id="polygon3502"
           style="fill:#ffffff" /></g><g
         id="g3504"><polygon
           points="-248.108,681.934 -236.052,674.962 -248.108,667.969 "
           id="polygon3506"
           style="fill:#26a9e0" /><polygon
           points="-235.237,690.275 -235.237,676.304 -247.325,683.277 "
           id="polygon3508"
           style="fill:#26a9e0" /><polygon
           points="-204.844,690.297 -192.692,683.277 -204.844,676.304 "
           id="polygon3510"
           style="fill:#26a9e0" /><polygon
           points="-191.892,681.934 -191.892,667.969 -204.065,674.962 "
           id="polygon3512"
           style="fill:#26a9e0" /><polygon
           points="-248.108,698.612 -236.052,691.635 -248.108,684.646 "
           id="polygon3514"
           style="fill:#26a9e0" /><polygon
           points="-235.237,706.967 -235.237,692.987 -247.325,699.951 "
           id="polygon3516"
           style="fill:#26a9e0" /><polygon
           points="-204.844,706.967 -192.692,699.951 -204.844,692.987 "
           id="polygon3518"
           style="fill:#26a9e0" /><polygon
           points="-235.237,673.618 -235.237,659.628 -247.325,666.622 "
           id="polygon3520"
           style="fill:#26a9e0" /><polygon
           points="-233.67,673.618 -221.625,666.622 -233.67,659.628 "
           id="polygon3522"
           style="fill:#26a9e0" /><polygon
           points="-220.825,681.934 -220.825,667.969 -232.891,674.962 "
           id="polygon3524"
           style="fill:#26a9e0" /><polygon
           points="-219.258,681.934 -207.18,674.962 -219.258,667.969 "
           id="polygon3526"
           style="fill:#26a9e0" /><polygon
           points="-206.413,673.618 -206.413,659.628 -218.478,666.622 "
           id="polygon3528"
           style="fill:#26a9e0" /><polygon
           points="-204.844,673.618 -192.692,666.622 -204.844,659.628 "
           id="polygon3530"
           style="fill:#26a9e0" /><polygon
           points="-191.892,698.612 -191.892,684.646 -204.065,691.635 "
           id="polygon3532"
           style="fill:#26a9e0" /></g></g><text
       xml:space="preserve"
       style="font-style:normal;font-weight:normal;font-size:31.08753204px;line-height:125%;font-family:sans-serif;letter-spacing:0px;word-spacing:0px;fill:#ffffff;fill-opacity:1;stroke:none;stroke-width:1px;stroke-linecap:butt;stroke-linejoin:miter;stroke-opacity:1"
       x="-242.88242"
       y="749.90509"
       id="text3548"
       sodipodi:linespacing="125%"
       transform="scale(1.0496749,0.95267592)"><tspan
         sodipodi:role="line"
         id="tspan3550"
         x="-242.88242"
         y="749.90509">DNS</tspan></text>
</g><g
     id="layer3"
     inkscape:label="PLACE YOUR PICTOGRAM HERE"
     inkscape:groupmode="layer" /><g
     id="layer2"
     inkscape:label="BADGE"
     sodipodi:insensitive="true"
     inkscape:groupmode="layer"
     display="none"><g
       id="g4394"
       transform="translate(-340.00001,-581)"
       display="inline"><g
         id="g855"><g
           id="g870"
           inkscape:groupmode="maskhelper"
           opacity="0.6"
           filter="url(#filter891)"><path
             id="path844_1_"
             sodipodi:type="arc"
             sodipodi:cx="252"
             sodipodi:cy="552.36218"
             sodipodi:rx="12"
             sodipodi:ry="12"
             d="m 264,552.36218 a 12,12 0 0 1 -12,12 12,12 0 0 1 -12,-12 12,12 0 0 1 12,-12 12,12 0 0 1 12,12 z" /></g><g
           id="g862"><path
             id="path4398"
             sodipodi:type="arc"
             sodipodi:cx="252"
             sodipodi:cy="552.36218"
             sodipodi:rx="12"
             sodipodi:ry="12"
             fill="#F5F5F5"
             d="m 264,552.36218 a 12,12 0 0 1 -12,12 12,12 0 0 1 -12,-12 12,12 0 0 1 12,-12 12,12 0 0 1 12,12 z" /><path
             id="path4400"
             sodipodi:type="arc"
             sodipodi:cx="252"
             sodipodi:cy="552.36218"
             sodipodi:rx="12"
             sodipodi:ry="12"
             fill="#DD4814"
             d="m 264,552.36218 a 12,12 0 0 1 -12,12 12,12 0 0 1 -12,-12 12,12 0 0 1 12,-12 12,12 0 0 1 12,12 z" /><path
             id="path4459"
             sodipodi:arg2="1.6755161"
             sodipodi:arg1="1.0471976"
             sodipodi:r2="4.3458705"
             sodipodi:r1="7.2431178"
             sodipodi:sides="5"
             sodipodi:type="star"
             sodipodi:cx="666.19574"
             sodipodi:cy="589.50385"
             inkscape:randomized="0"
             inkscape:rounded="0.1"
             inkscape:flatsided="false"
             fill="#F5F5F5"
             d="m 669.8173,595.77657 c -0.39132,0.22593 -3.62645,-1.90343 -4.07583,-1.95066 -0.44938,-0.0472 -4.05653,1.36297 -4.39232,1.06062 -0.3358,-0.30235 0.68963,-4.03715 0.59569,-4.47913 -0.0939,-0.44198 -2.5498,-3.43681 -2.36602,-3.8496 0.18379,-0.41279 4.05267,-0.59166 4.44398,-0.81759 0.39132,-0.22593 2.48067,-3.48704 2.93005,-3.4398 0.44938,0.0472 1.81505,3.67147 2.15084,3.97382 0.3358,0.30236 4.08294,1.2817 4.17689,1.72369 0.0939,0.44198 -2.9309,2.86076 -3.11469,3.27355 -0.18379,0.41279 0.0427,4.27917 -0.34859,4.5051 z" /></g></g></g></g></svg>